<?xml version="1.0" encoding="utf-8"?>
<!-- Generator: Adobe Illustrator 26.3.1, SVG Export Plug-In . SVG Version: 6.00 Build 0)  -->
<svg version="1.1" id="Шар_1" xmlns="http://www.w3.org/2000/svg" xmlns:xlink="http://www.w3.org/1999/xlink" x="0px" y="0px"
	 viewBox="0 0 895.1 895" style="enable-background:new 0 0 895.1 895;" xml:space="preserve">
<path d="M447.6,0C200.3-0.1,0,200.1,0,447.2c0,195.4,125.3,361.5,299.8,422.5c23.5,5.9,19.9-10.8,19.9-22.2V770
	c-135.7,15.9-141.2-73.9-150.3-88.9c-18.4-31.4-61.9-39.4-48.9-54.4c30.9-15.9,62.4,4,98.9,57.9c26.4,39.1,77.9,32.5,104,26
	c5.7-23.5,17.9-44.5,34.7-60.8c-140.6-25.2-199.2-111-199.2-213c0-49.5,16.3-95,48.3-131.7c-20.4-60.5,1.9-112.3,4.9-120
	c58.1-5.2,118.5,41.6,123.2,45.3c33-8.9,70.7-13.6,112.9-13.6c42.4,0,80.2,4.9,113.5,13.9c11.3-8.6,67.3-48.8,121.3-43.9
	c2.9,7.7,24.7,58.3,5.5,118c32.4,36.8,48.9,82.7,48.9,132.3c0,102.2-59,188.1-200,212.9c24.4,24,38.1,56.8,38.1,91v112.5
	c0.8,9,0,17.9,15,17.9c177.1-59.7,304.6-227,304.6-424.1C895.1,200.1,694.7,0,447.6,0L447.6,0z"/>
</svg>
