<?xml version="1.0" encoding="utf-8"?>
<!-- Generator: Adobe Illustrator 26.3.1, SVG Export Plug-In . SVG Version: 6.00 Build 0)  -->
<svg version="1.1" id="Шар_1" xmlns="http://www.w3.org/2000/svg" xmlns:xlink="http://www.w3.org/1999/xlink" x="0px" y="0px"
	 viewBox="0 0 32 32" style="enable-background:new 0 0 32 32;" xml:space="preserve">
<style type="text/css">
	.st0{fill-rule:evenodd;clip-rule:evenodd;fill:#070707;}
</style>
<path class="st0" d="M9.5,0.5c1.6-0.1,2.2-0.1,6.4-0.1s4.7,0,6.4,0.1c1.6,0.1,2.8,0.3,3.7,0.7c1,0.4,2,1,2.7,1.8
	c0.8,0.8,1.4,1.7,1.8,2.7c0.4,1,0.6,2.1,0.7,3.7c0.1,1.6,0.1,2.2,0.1,6.4c0,4.2,0,4.7-0.1,6.4c-0.1,1.6-0.3,2.8-0.7,3.7
	c-0.4,1-1,2-1.8,2.7c-0.8,0.8-1.7,1.4-2.7,1.8c-1,0.4-2.1,0.6-3.7,0.7c-1.6,0.1-2.2,0.1-6.4,0.1s-4.7,0-6.4-0.1
	c-1.6-0.1-2.8-0.3-3.7-0.7c-1-0.4-2-1-2.7-1.8c-0.8-0.8-1.4-1.7-1.8-2.7c-0.4-1-0.6-2.1-0.7-3.7c-0.1-1.6-0.1-2.2-0.1-6.4
	c0-4.2,0-4.7,0.1-6.4c0.1-1.6,0.3-2.8,0.7-3.7c0.4-1,1-2,1.8-2.7c0.8-0.8,1.7-1.4,2.7-1.8C6.7,0.8,7.8,0.6,9.5,0.5L9.5,0.5z
	 M22.1,3.3c-1.6-0.1-2.1-0.1-6.2-0.1s-4.6,0-6.2,0.1C8.1,3.3,7.3,3.6,6.7,3.8C6,4.1,5.5,4.4,5,5C4.4,5.5,4,6.1,3.8,6.7
	C3.6,7.3,3.3,8.1,3.3,9.6c-0.1,1.6-0.1,2.1-0.1,6.2s0,4.6,0.1,6.2c0.1,1.5,0.3,2.3,0.5,2.9C4,25.6,4.4,26.2,5,26.7
	c0.5,0.5,1.1,0.9,1.8,1.2c0.5,0.2,1.4,0.5,2.9,0.5c1.6,0.1,2.1,0.1,6.2,0.1s4.6,0,6.2-0.1c1.5-0.1,2.3-0.3,2.9-0.5
	c0.7-0.3,1.2-0.6,1.8-1.2c0.5-0.5,0.9-1.1,1.2-1.8c0.2-0.5,0.5-1.4,0.5-2.9c0.1-1.6,0.1-2.1,0.1-6.2s0-4.6-0.1-6.2
	c-0.1-1.5-0.3-2.3-0.5-2.9C27.6,6,27.2,5.5,26.7,5c-0.5-0.5-1.1-0.9-1.8-1.2C24.4,3.6,23.6,3.3,22.1,3.3z M13.9,20.6
	c1.1,0.5,2.3,0.5,3.5,0.2c1.1-0.3,2.1-1.1,2.8-2.1c0.7-1,1-2.2,0.8-3.4c-0.1-1.2-0.6-2.3-1.5-3.1c-0.5-0.5-1.2-0.9-1.9-1.2
	c-0.7-0.3-1.5-0.4-2.2-0.3c-0.8,0.1-1.5,0.3-2.1,0.7c-0.7,0.4-1.2,0.9-1.6,1.6c-0.4,0.6-0.7,1.4-0.8,2.1c-0.1,0.8-0.1,1.5,0.2,2.2
	s0.6,1.4,1.1,2C12.5,19.8,13.2,20.3,13.9,20.6z M10.2,10.2c0.7-0.7,1.6-1.3,2.6-1.7c1-0.4,2-0.6,3-0.6c1,0,2.1,0.2,3,0.6
	c1,0.4,1.8,1,2.6,1.7c0.7,0.7,1.3,1.6,1.7,2.6c0.4,1,0.6,2,0.6,3c0,1-0.2,2.1-0.6,3c-0.4,1-1,1.8-1.7,2.6c-1.5,1.5-3.5,2.3-5.6,2.3
	s-4.1-0.8-5.6-2.3c-1.5-1.5-2.3-3.5-2.3-5.6C7.9,13.7,8.7,11.7,10.2,10.2z M25.5,9.1c0.2-0.2,0.3-0.4,0.4-0.6
	C26,8.2,26.1,8,26.1,7.7c0-0.3,0-0.5-0.1-0.7c-0.1-0.2-0.2-0.4-0.4-0.6c-0.2-0.2-0.4-0.3-0.6-0.4c-0.2-0.1-0.5-0.1-0.7-0.1
	c-0.3,0-0.5,0.1-0.7,0.2c-0.2,0.1-0.4,0.2-0.6,0.4c-0.3,0.4-0.5,0.8-0.5,1.3c0,0.5,0.2,1,0.5,1.3c0.3,0.3,0.8,0.5,1.3,0.5
	S25.2,9.4,25.5,9.1z"/>
</svg>
