<?xml version="1.0" encoding="utf-8"?>
<!-- Generator: Adobe Illustrator 26.3.1, SVG Export Plug-In . SVG Version: 6.00 Build 0)  -->
<svg version="1.1" id="Шар_1" xmlns="http://www.w3.org/2000/svg" xmlns:xlink="http://www.w3.org/1999/xlink" x="0px" y="0px"
	 viewBox="0 0 30 30" style="enable-background:new 0 0 30 30;" xml:space="preserve">
<path d="M2.6,7.8c0.2-0.3,0.6-0.7,0.8-1C4.2,6,4.3,5.9,5,5.3c0.2-0.2,0.5-0.4,0.7-0.5c-1.8,1.4-2,3-0.4,3.9c0,0,0,0,0,0
	c2.3,1.3,7.2,1,11.1-0.6c3.8-1.6,5.2-3.9,3.3-5.2c-1.6-0.3-3.6-0.3-5.7-0.1l-0.2-0.3L14,1.8c1.2-0.1,2.4-0.1,3.4,0.1
	C17.6,2,18,2,18.2,2.1c0.5,0.1,0.7,0.2,1,0.3c0.3,0.1,0.6,0.2,1,0.3c0.4,0.2,0.6,0.2,1,0.4c0.4,0.2,0.8,0.4,1.2,0.6
	c3,1.8,1.1,5-4.1,7.2C13,13.1,6.3,13.5,3.3,11.7c0,0,0,0,0,0h0C1.7,10.7,1.5,9.3,2.6,7.8z M16.2,20.2l0-2l-1.5-1.6
	C9.8,17.7,4.9,17.5,2.2,16c0,0,0,0,0,0c-1.5-0.9-1.9-2-1.8-3.3C0,14.5,0,15.2,0,16.7c0.1,1,0.7,1.9,1.9,2.6l0,0
	C4.8,21,10.8,21.4,16.2,20.2z M22.5,22.5c-7,2.6-15.7,2.8-19.5,0.4c0.4,0.9,1,1.8,1.7,2.6c3.5,2.2,11.5,2.1,17.9-0.3
	c3.7-1.4,6.1-3.3,6.7-5.1l0.2-0.5c0.4-1.4,0.5-2.5,0.6-3.5C29.9,18.2,27.2,20.7,22.5,22.5z M7.1,27.6c0.2,0.2,0.9,1,4.4,1.9
	c0.9,0.2,3.3,0.8,7.7-0.1l0-0.4l-0.3-0.5C14.8,29.4,10.3,29.1,7.1,27.6z M17.2,11.9l3.7,2.7c0,0,0.8,0.5,0,0.9
	c-0.7,0.4-2.7,1.3-2.7,1.3l-1.9-0.7l-1,0.4l1.7,1.4l0,2.1l1-0.4l0.7-1.8c0,0,2-0.7,2.8-1c0.8-0.3,0.7,0.7,0.7,0.7l-0.4,4.4l1.3-0.5
	l2.2-5.9c0,0,1.1-0.5,1.9-1c0.8-0.5,1.1-1.2,1.1-1.2s-0.8-0.3-1.7-0.1c-0.9,0.3-2.1,0.7-2.1,0.7l-6.1-2.4L17.2,11.9z M9.3,3.4
	l2.5,1.9l0.7-0.1l-1.4-1.7c0,0-0.3-0.4,0.1-0.4c0.4-0.1,1.4-0.3,1.4-0.3l0.8,0.6L14,3.3l-0.6-0.9l0.3-1l-0.5,0.1l-0.6,0.7
	c0,0-1,0.1-1.5,0.1c-0.4,0-0.2-0.4-0.2-0.4l0.8-2L11,0.1L9.2,2.6c0,0-0.6,0.1-1,0.2C7.7,2.9,7.5,3.3,7.5,3.3s0.3,0.2,0.8,0.2
	C8.7,3.5,9.3,3.4,9.3,3.4z M21.8,27.8L20.1,27l-0.4,0.1l1,0.8c0,0,0.2,0.2,0,0.3c-0.2,0.1-0.8,0.3-0.8,0.3l-0.5-0.2l-0.3,0.1
	l0.4,0.4l0,0.6l0.3-0.1l0.2-0.5c0,0,0.6-0.2,0.8-0.2c0.2-0.1,0.2,0.2,0.2,0.2L20.8,30l0.4-0.1l0.7-1.6c0,0,0.3-0.1,0.6-0.2
	c0.2-0.1,0.3-0.3,0.3-0.3s-0.2-0.1-0.5-0.1C22.1,27.7,21.8,27.8,21.8,27.8z"/>
</svg>
