<?xml version="1.0" encoding="utf-8"?>
<!-- Generator: Adobe Illustrator 26.3.1, SVG Export Plug-In . SVG Version: 6.00 Build 0)  -->
<svg version="1.1" id="Шар_1" xmlns="http://www.w3.org/2000/svg" xmlns:xlink="http://www.w3.org/1999/xlink" x="0px" y="0px"
	 viewBox="0 0 33 27" style="enable-background:new 0 0 33 27;" xml:space="preserve">
<style type="text/css">
	.st0{fill:#070707;}
</style>
<path class="st0" d="M32.5,3.9c-1.2,0.5-2.4,0.9-3.8,1c1.4-0.8,2.4-2.1,2.9-3.6c-1.3,0.8-2.7,1.3-4.1,1.6c-1-1.1-2.3-1.7-3.7-2
	c-1.4-0.2-2.9,0-4.1,0.7c-1.3,0.7-2.3,1.8-2.9,3.1C16.1,6,16,7.5,16.3,8.9c-2.6-0.1-5.1-0.8-7.5-2c-2.3-1.2-4.4-2.8-6-4.8
	C2.3,3,2,4.1,2,5.3c0,1.1,0.3,2.1,0.8,3.1c0.5,0.9,1.2,1.8,2.1,2.4c-1,0-2.1-0.3-3-0.8V10c0,1.5,0.5,3,1.5,4.1c1,1.2,2.3,2,3.8,2.3
	c-1,0.3-2,0.3-3,0.1c0.4,1.3,1.2,2.4,2.3,3.2c1.1,0.8,2.4,1.3,3.8,1.3c-2.3,1.8-5.2,2.8-8.1,2.8c-0.5,0-1,0-1.6-0.1
	c3,1.9,6.5,2.9,10,2.9c12,0,18.6-10,18.6-18.6c0-0.3,0-0.6,0-0.8C30.5,6.4,31.6,5.2,32.5,3.9L32.5,3.9z"/>
</svg>
